<mxfile host="app.diagrams.net" agent="Mozilla/5.0 (Macintosh; Intel Mac OS X 10_15_7) AppleWebKit/537.36 (KHTML, like Gecko) Chrome/127.0.0.0 Safari/537.36" version="24.7.12">
  <diagram name="Page-1" id="b1v1aENkADIlwKaSiofs">
    <mxGraphModel dx="1237" dy="835" grid="1" gridSize="10" guides="1" tooltips="1" connect="1" arrows="1" fold="1" page="1" pageScale="1" pageWidth="850" pageHeight="1100" math="0" shadow="0">
      <root>
        <mxCell id="0" />
        <mxCell id="1" parent="0" />
        <mxCell id="T6ThYsMfemUYkUzxc1Es-1" value="" style="rounded=1;whiteSpace=wrap;html=1;strokeColor=#ffffff;" vertex="1" parent="1">
          <mxGeometry y="60" width="840" height="590" as="geometry" />
        </mxCell>
        <mxCell id="bZgJQDUmXNcscB62G3Fs-1" value=":app" style="ellipse;whiteSpace=wrap;html=1;strokeColor=#000000;" parent="1" vertex="1">
          <mxGeometry x="365" y="70" width="120" height="80" as="geometry" />
        </mxCell>
        <mxCell id="bZgJQDUmXNcscB62G3Fs-2" value="" style="rounded=1;whiteSpace=wrap;html=1;dashed=1;" parent="1" vertex="1">
          <mxGeometry x="40" y="240" width="760" height="410" as="geometry" />
        </mxCell>
        <mxCell id="bZgJQDUmXNcscB62G3Fs-3" value=":features" style="text;html=1;align=center;verticalAlign=middle;whiteSpace=wrap;rounded=0;" parent="1" vertex="1">
          <mxGeometry x="60" y="260" width="60" height="30" as="geometry" />
        </mxCell>
        <mxCell id="bZgJQDUmXNcscB62G3Fs-4" value="" style="rounded=1;whiteSpace=wrap;html=1;dashed=1;" parent="1" vertex="1">
          <mxGeometry x="70" y="310" width="180" height="310" as="geometry" />
        </mxCell>
        <mxCell id="bZgJQDUmXNcscB62G3Fs-5" value=":home:presentation" style="ellipse;whiteSpace=wrap;html=1;" parent="1" vertex="1">
          <mxGeometry x="102.5" y="370" width="115" height="50" as="geometry" />
        </mxCell>
        <mxCell id="bZgJQDUmXNcscB62G3Fs-6" value=":home:domain" style="ellipse;whiteSpace=wrap;html=1;" parent="1" vertex="1">
          <mxGeometry x="102.5" y="460" width="115" height="50" as="geometry" />
        </mxCell>
        <mxCell id="bZgJQDUmXNcscB62G3Fs-7" value=":home:data" style="ellipse;whiteSpace=wrap;html=1;" parent="1" vertex="1">
          <mxGeometry x="102.5" y="550" width="115" height="50" as="geometry" />
        </mxCell>
        <mxCell id="bZgJQDUmXNcscB62G3Fs-8" value=":home" style="text;html=1;align=center;verticalAlign=middle;whiteSpace=wrap;rounded=0;" parent="1" vertex="1">
          <mxGeometry x="70" y="330" width="60" height="30" as="geometry" />
        </mxCell>
        <mxCell id="bZgJQDUmXNcscB62G3Fs-9" value="" style="endArrow=classic;html=1;rounded=0;exitX=0.5;exitY=1;exitDx=0;exitDy=0;entryX=0.5;entryY=0;entryDx=0;entryDy=0;" parent="1" source="bZgJQDUmXNcscB62G3Fs-5" target="bZgJQDUmXNcscB62G3Fs-6" edge="1">
          <mxGeometry width="50" height="50" relative="1" as="geometry">
            <mxPoint x="167.5" y="450" as="sourcePoint" />
            <mxPoint x="217.5" y="400" as="targetPoint" />
          </mxGeometry>
        </mxCell>
        <mxCell id="bZgJQDUmXNcscB62G3Fs-10" value="" style="endArrow=classic;html=1;rounded=0;exitX=0.5;exitY=0;exitDx=0;exitDy=0;entryX=0.5;entryY=1;entryDx=0;entryDy=0;" parent="1" source="bZgJQDUmXNcscB62G3Fs-7" target="bZgJQDUmXNcscB62G3Fs-6" edge="1">
          <mxGeometry width="50" height="50" relative="1" as="geometry">
            <mxPoint x="320" y="510" as="sourcePoint" />
            <mxPoint x="320" y="550" as="targetPoint" />
          </mxGeometry>
        </mxCell>
        <mxCell id="bZgJQDUmXNcscB62G3Fs-11" value="" style="rounded=1;whiteSpace=wrap;html=1;dashed=1;" parent="1" vertex="1">
          <mxGeometry x="335.5" y="310" width="180" height="310" as="geometry" />
        </mxCell>
        <mxCell id="bZgJQDUmXNcscB62G3Fs-12" value="" style="rounded=1;whiteSpace=wrap;html=1;dashed=1;" parent="1" vertex="1">
          <mxGeometry x="590" y="310" width="180" height="310" as="geometry" />
        </mxCell>
        <mxCell id="bZgJQDUmXNcscB62G3Fs-13" value=":search:presentation" style="ellipse;whiteSpace=wrap;html=1;" parent="1" vertex="1">
          <mxGeometry x="368" y="370" width="115" height="50" as="geometry" />
        </mxCell>
        <mxCell id="bZgJQDUmXNcscB62G3Fs-14" value=":search:domain" style="ellipse;whiteSpace=wrap;html=1;" parent="1" vertex="1">
          <mxGeometry x="368" y="460" width="115" height="50" as="geometry" />
        </mxCell>
        <mxCell id="bZgJQDUmXNcscB62G3Fs-15" value=":search:data" style="ellipse;whiteSpace=wrap;html=1;" parent="1" vertex="1">
          <mxGeometry x="368" y="550" width="115" height="50" as="geometry" />
        </mxCell>
        <mxCell id="bZgJQDUmXNcscB62G3Fs-16" value=":search" style="text;html=1;align=center;verticalAlign=middle;whiteSpace=wrap;rounded=0;" parent="1" vertex="1">
          <mxGeometry x="335.5" y="330" width="60" height="30" as="geometry" />
        </mxCell>
        <mxCell id="bZgJQDUmXNcscB62G3Fs-17" value=":saved" style="text;html=1;align=center;verticalAlign=middle;whiteSpace=wrap;rounded=0;" parent="1" vertex="1">
          <mxGeometry x="590" y="330" width="60" height="30" as="geometry" />
        </mxCell>
        <mxCell id="bZgJQDUmXNcscB62G3Fs-18" value=":saved:presentation" style="ellipse;whiteSpace=wrap;html=1;" parent="1" vertex="1">
          <mxGeometry x="622.5" y="370" width="115" height="50" as="geometry" />
        </mxCell>
        <mxCell id="bZgJQDUmXNcscB62G3Fs-19" value=":saved:domain" style="ellipse;whiteSpace=wrap;html=1;" parent="1" vertex="1">
          <mxGeometry x="622.5" y="460" width="115" height="50" as="geometry" />
        </mxCell>
        <mxCell id="bZgJQDUmXNcscB62G3Fs-20" value=":saved:domain" style="ellipse;whiteSpace=wrap;html=1;" parent="1" vertex="1">
          <mxGeometry x="622.5" y="550" width="115" height="50" as="geometry" />
        </mxCell>
        <mxCell id="bZgJQDUmXNcscB62G3Fs-21" value="" style="endArrow=classic;html=1;rounded=0;exitX=0.5;exitY=1;exitDx=0;exitDy=0;entryX=0.5;entryY=0;entryDx=0;entryDy=0;" parent="1" edge="1">
          <mxGeometry width="50" height="50" relative="1" as="geometry">
            <mxPoint x="425" y="420" as="sourcePoint" />
            <mxPoint x="425" y="460" as="targetPoint" />
          </mxGeometry>
        </mxCell>
        <mxCell id="bZgJQDUmXNcscB62G3Fs-22" value="" style="endArrow=classic;html=1;rounded=0;exitX=0.5;exitY=1;exitDx=0;exitDy=0;entryX=0.5;entryY=0;entryDx=0;entryDy=0;" parent="1" edge="1">
          <mxGeometry width="50" height="50" relative="1" as="geometry">
            <mxPoint x="679.5" y="420" as="sourcePoint" />
            <mxPoint x="679.5" y="460" as="targetPoint" />
          </mxGeometry>
        </mxCell>
        <mxCell id="bZgJQDUmXNcscB62G3Fs-23" value="" style="endArrow=classic;html=1;rounded=0;exitX=0.5;exitY=0;exitDx=0;exitDy=0;entryX=0.5;entryY=1;entryDx=0;entryDy=0;" parent="1" edge="1">
          <mxGeometry width="50" height="50" relative="1" as="geometry">
            <mxPoint x="425" y="550" as="sourcePoint" />
            <mxPoint x="425" y="510" as="targetPoint" />
          </mxGeometry>
        </mxCell>
        <mxCell id="bZgJQDUmXNcscB62G3Fs-24" value="" style="endArrow=classic;html=1;rounded=0;exitX=0.5;exitY=0;exitDx=0;exitDy=0;entryX=0.5;entryY=1;entryDx=0;entryDy=0;" parent="1" edge="1">
          <mxGeometry width="50" height="50" relative="1" as="geometry">
            <mxPoint x="679.5" y="550" as="sourcePoint" />
            <mxPoint x="679.5" y="510" as="targetPoint" />
          </mxGeometry>
        </mxCell>
        <mxCell id="bZgJQDUmXNcscB62G3Fs-26" value="" style="endArrow=classic;html=1;rounded=0;exitX=0;exitY=1;exitDx=0;exitDy=0;entryX=0.5;entryY=0;entryDx=0;entryDy=0;" parent="1" source="bZgJQDUmXNcscB62G3Fs-1" target="bZgJQDUmXNcscB62G3Fs-4" edge="1">
          <mxGeometry width="50" height="50" relative="1" as="geometry">
            <mxPoint x="483" y="230" as="sourcePoint" />
            <mxPoint x="533" y="180" as="targetPoint" />
          </mxGeometry>
        </mxCell>
        <mxCell id="bZgJQDUmXNcscB62G3Fs-32" value="" style="endArrow=classic;html=1;rounded=0;exitX=0.5;exitY=1;exitDx=0;exitDy=0;entryX=0.5;entryY=0;entryDx=0;entryDy=0;" parent="1" source="bZgJQDUmXNcscB62G3Fs-1" target="bZgJQDUmXNcscB62G3Fs-11" edge="1">
          <mxGeometry width="50" height="50" relative="1" as="geometry">
            <mxPoint x="435" y="160" as="sourcePoint" />
            <mxPoint x="253" y="329" as="targetPoint" />
          </mxGeometry>
        </mxCell>
        <mxCell id="bZgJQDUmXNcscB62G3Fs-33" value="" style="endArrow=classic;html=1;rounded=0;exitX=1;exitY=1;exitDx=0;exitDy=0;entryX=0.5;entryY=0;entryDx=0;entryDy=0;" parent="1" source="bZgJQDUmXNcscB62G3Fs-1" target="bZgJQDUmXNcscB62G3Fs-12" edge="1">
          <mxGeometry width="50" height="50" relative="1" as="geometry">
            <mxPoint x="435" y="160" as="sourcePoint" />
            <mxPoint x="430" y="320" as="targetPoint" />
          </mxGeometry>
        </mxCell>
        <mxCell id="bZgJQDUmXNcscB62G3Fs-40" value="&lt;font style=&quot;font-size: 24px;&quot;&gt;*&lt;/font&gt;" style="text;html=1;align=center;verticalAlign=middle;whiteSpace=wrap;rounded=0;" parent="1" vertex="1">
          <mxGeometry x="90" y="260" width="60" height="30" as="geometry" />
        </mxCell>
      </root>
    </mxGraphModel>
  </diagram>
</mxfile>
